<svg xmlns="http://www.w3.org/2000/svg" width="32" height="32" viewBox="0 0 32 32">
    <g fill="none" fill-rule="evenodd">
        <g fill="#FF540F">
            <path d="M10.114 14.218l-1.015 2.89H11.1l-.987-2.89zm1.71 5.029l-.449-1.308H8.806l-.448 1.308H7.307l2.386-6.51h.795l2.387 6.51h-1.052zM14.56 19.247v-6.51h.988v5.623h3.136v.887zM20.57 19.247v-6.51h.987v5.623h3.136v.887z"/>
        </g>
        <path d="M0 0h32v32H0z"/>
        <path fill="#FF540F" d="M6.095 1.524a4.571 4.571 0 0 1 4.567 4.356l.005.215a4.571 4.571 0 0 1-4.357 4.567l-.215.005A4.571 4.571 0 0 1 1.53 6.31l-.005-.215A4.571 4.571 0 0 1 5.88 1.53l.215-.005zM8.642 3.83l-3.51 3.51-1.584-1.585-.68.68 2.265 2.266 4.19-4.19-.68-.68z"/>
    </g>
</svg>
